<?xml version="1.0" encoding="utf-8"?>
<!-- Generator: Adobe Illustrator 23.0.3, SVG Export Plug-In . SVG Version: 6.00 Build 0)  -->
<svg version="1.1" id="Layer_1" xmlns="http://www.w3.org/2000/svg" xmlns:xlink="http://www.w3.org/1999/xlink" x="0px" y="0px"
	 viewBox="0 0 128 128" style="enable-background:new 0 0 128 128;" xml:space="preserve">
<style type="text/css">
	.st0{fill:#3486B8;}
	.st1{fill:#3586B9;}
</style>
<g>
	<path class="st1" d="M125.39,10.55c-0.89-0.73-7.86-4.47-7.86-4.47l-7.44,4.32l0,0l-7.76-4.34c0,0-6.35,3.71-9.43,5.49
		c-3.88,2.24-13.4,7.91-13.4,7.91v8.37l-7.84,20.43v11.09l-5.5,3.21l-2.19,5.73L48.52,28.25l0-8.78L17.77,1.64L2.41,10.53l-0.01,0
		v9.05l9.58,23.07l5.82,3.43l0.01,10.52l23.08,56.05l23.06,13.2v0.08l23.03-13.33l38.49-93.21L125.39,10.55z M40.81,32.66v8.9
		l-7.74-4.4L40.81,32.66z M17.81,28.4l-7.83-4.55l7.84-4.41L17.81,28.4z M33.16,72.76l-7.71-4.57l7.75-4.46l7.74,4.5L33.16,72.76z
		 M63.97,117.11l-7.85-4.56l7.87-4.62L63.97,117.11z M63.82,99.36l-7.72-4.58l7.82-4.45l7.71,4.41L63.82,99.36z M94.68,19.5v8.84
		l-7.64,4.39l-0.02-8.88L94.68,19.5z M79.28,108.2V99.3l7.78,4.4L79.28,108.2z M94.58,46.02l-7.67-4.45l7.71-4.48l7.7,4.49
		L94.58,46.02z"/>
	<polygon class="st1" points="110.08,1.64 110.08,10.39 117.52,6.07 	"/>
</g>
</svg>
